<?xml version="1.0" encoding="utf-8"?>
<!-- Generator: Adobe Illustrator 23.0.2, SVG Export Plug-In . SVG Version: 6.00 Build 0)  -->
<svg version="1.1" id="Logo" xmlns="http://www.w3.org/2000/svg" xmlns:xlink="http://www.w3.org/1999/xlink" x="0px" y="0px"
	 viewBox="0 0 737.01 566.93" style="enable-background:new 0 0 737.01 566.93;" xml:space="preserve">
<style type="text/css">
	.st0{fill:#FDC013;}
	.st1{fill:#FFFFFF;}
</style>
<path class="st0" d="M329.53,342.99c0-1.56-1.28-2.83-2.83-2.83h-8.5c-1.56,0-2.83,1.28-2.83,2.83v51.02c0,1.56,1.28,2.83,2.83,2.83
	h8.5c1.56,0,2.83-1.28,2.83-2.83V342.99z"/>
<path class="st1" d="M269.29,382.68c7.83,0,14.17-6.35,14.17-14.17c0-7.83-6.35-14.17-14.17-14.17h-28.35v11.34
	c0,1.56-1.28,2.83-2.83,2.83h-8.5c-1.56,0-2.83-1.28-2.83-2.83v-8.5v-14.17c0-1.56,1.28-2.83,2.83-2.83h39.69
	c15.66,0,28.35,12.69,28.35,28.35c0,15.66-12.69,28.35-28.35,28.35h-39.69c-1.56,0-2.83-1.28-2.83-2.83v-8.5
	c0-1.56,1.28-2.83,2.83-2.83H269.29z"/>
<path class="st1" d="M382.68,255.12c15.66,0,28.35-12.69,28.35-28.35c0-15.66-12.69-28.35-28.35-28.35h-56.69v22.68
	c0,3.12-2.55,5.67-5.67,5.67l-17.01,0c-3.12,0-5.67-2.55-5.67-5.67v-17.01v-28.35c0-3.12,2.55-5.67,5.67-5.67h79.37
	c31.31,0,56.69,25.38,56.69,56.69c0,31.31-25.38,56.69-56.69,56.69h-79.37c-3.12,0-5.67-2.55-5.67-5.67v-17.01
	c0-3.12,2.55-5.67,5.67-5.67H382.68z"/>
<path class="st1" d="M467.72,354.33c-7.83,0-14.17,6.35-14.17,14.17c0,7.83,6.35,14.17,14.17,14.17h28.35v-11.34
	c0-1.56,1.28-2.83,2.83-2.83h8.5c1.56,0,2.83,1.28,2.83,2.83v8.5v14.17c0,1.56-1.28,2.83-2.83,2.83h-39.69
	c-15.66,0-28.35-12.69-28.35-28.35c0-15.66,12.69-28.35,28.35-28.35h39.69c1.56,0,2.83,1.28,2.83,2.83v8.5
	c0,1.56-1.28,2.83-2.83,2.83H467.72z"/>
<path class="st1" d="M407.51,376.89l-0.03-33.9c0-1.56,1.28-2.83,2.83-2.83h8.5c1.56,0,2.83,1.28,2.83,2.83v45.63v5.39
	c0,1.56-1.28,2.83-2.83,2.83h-8.5c-0.78,0-1.21-0.18-2-0.83l-43.35-35.94v33.94c0,1.56-1.28,2.83-2.83,2.83h-8.5
	c-1.56,0-2.83-1.28-2.83-2.83v-51.02c0-1.56,1.28-2.83,2.83-2.83h8.5c0.78,0,1.21,0.18,2,0.83L407.51,376.89z"/>
</svg>
